<svg xmlns="http://www.w3.org/2000/svg"><style>:root svg:not(:target){display:none}</style><svg viewBox="0 0 24 28" fill="none" id="anchor"><path d="M21.9986 11.6428L11.9812 1.62549L1.96387 11.6428M12.0024 2.21489V26.3744" stroke="#5DDA04" stroke-width="2.5" stroke-linecap="round" stroke-linejoin="round"></path></svg><svg viewBox="0 0 17 14" fill="none" id="arrdark"><path opacity="0.5" d="M1.5 8L6 12.5L16 1.5" stroke="#333333" stroke-width="2"></path></svg><svg viewBox="0 0 40 40" fill="none" id="arrow-card"><path d="M28.75 25.4167V11.25H14.5833" stroke="white" stroke-width="2.5" stroke-linecap="round" stroke-linejoin="round"></path><path d="M28.3333 11.6666L11.25 28.75" stroke="white" stroke-width="2.5" stroke-linecap="round" stroke-linejoin="round"></path></svg><svg viewBox="0 0 40 40" fill="none" id="arrow-green"><path d="M28.7499 25.4167V11.25H14.5833" stroke="#5DDA04" stroke-width="2.5" stroke-linecap="round" stroke-linejoin="round"></path><path d="M28.3333 11.667L11.25 28.7503" stroke="#5DDA04" stroke-width="2.5" stroke-linecap="round" stroke-linejoin="round"></path></svg><svg viewBox="0 0 16 14" fill="none" id="burger-black"><path d="M0.5 13.5V10.8333H15.5V13.5H0.5ZM0.5 8.33333V5.66667H15.5V8.33333H0.5ZM0.5 3.16667V0.5H15.5V3.16667H0.5Z" fill="black"></path></svg><svg viewBox="0 0 16 14" fill="none" id="burger"><path d="M0.5 13.5V10.8333H15.5V13.5H0.5ZM0.5 8.33333V5.66667H15.5V8.33333H0.5ZM0.5 3.16667V0.5H15.5V3.16667H0.5Z" fill="white"></path></svg><svg viewBox="0 0 20 20" fill="none" id="by"><path d="M15.1724 16.3362C14.8981 16.3362 14.6349 16.4452 14.4409 16.6392C14.2469 16.8332 14.1379 17.0963 14.1379 17.3707C14.1379 17.645 14.2469 17.9082 14.4409 18.1022C14.6349 18.2962 14.8981 18.4052 15.1724 18.4052C15.4468 18.4052 15.7099 18.2962 15.9039 18.1022C16.0979 17.9082 16.2069 17.645 16.2069 17.3707C16.2069 17.0963 16.0979 16.8332 15.9039 16.6392C15.7099 16.4452 15.4468 16.3362 15.1724 16.3362Z" fill="#5DDA04"></path><path d="M7.93097 16.3362C7.65661 16.3362 7.39348 16.4452 7.19948 16.6392C7.00547 16.8332 6.89648 17.0963 6.89648 17.3707C6.89648 17.645 7.00547 17.9082 7.19948 18.1022C7.39348 18.2962 7.65661 18.4052 7.93097 18.4052C8.20533 18.4052 8.46845 18.2962 8.66246 18.1022C8.85646 17.9082 8.96545 17.645 8.96545 17.3707C8.96545 17.0963 8.85646 16.8332 8.66246 16.6392C8.46845 16.4452 8.20533 16.3362 7.93097 16.3362Z" fill="#5DDA04"></path><path d="M15.8066 12.9307L17.5 5.73279H11.5517H5.63538L7.52345 12.9866C7.64029 13.4278 7.89975 13.818 8.26142 14.0964C8.6231 14.3748 9.06668 14.5258 9.5231 14.5259H13.7924C14.2588 14.5259 14.7115 14.3684 15.0771 14.0788C15.4427 13.7893 15.6998 13.3847 15.8066 12.9307Z" fill="#5DDA04"></path><path d="M2.5 2.62933H4.82759L7.52345 12.9866C7.64029 13.4278 7.89975 13.818 8.26142 14.0964C8.6231 14.3748 9.06668 14.5258 9.5231 14.5259H13.7924C14.2588 14.5259 14.7115 14.3684 15.0771 14.0788C15.4427 13.7893 15.6998 13.3847 15.8066 12.9307L17.5 5.73279H11.5517H5.63538" stroke="#5DDA04" stroke-width="1.55173" stroke-linecap="round" stroke-linejoin="round"></path></svg><svg viewBox="0 0 17 14" fill="none" id="check"><path opacity="0.5" d="M1.5 8L6 12.5L16 1.5" stroke="white" stroke-width="2"></path></svg><svg viewBox="0 0 20 20" fill="none" id="circle"><circle cx="10" cy="10" r="10" fill="#5DDA04"></circle></svg><svg viewBox="0 0 20 18" fill="none" id="eye"><path d="M19.0625 9C19.0625 10.25 16.875 16.8125 10 16.8125C3.125 16.8125 0.9375 10.25 0.9375 9C0.9375 7.75 3.125 1.1875 10 1.1875C16.875 1.1875 19.0625 7.75 19.0625 9Z" stroke="white" stroke-width="1.875" stroke-linecap="round" stroke-linejoin="round"></path><path d="M10 6.1875C9.25408 6.1875 8.53871 6.48382 8.01126 7.01126C7.48382 7.53871 7.1875 8.25408 7.1875 9C7.1875 9.74592 7.48382 10.4613 8.01126 10.9887C8.53871 11.5162 9.25408 11.8125 10 11.8125C10.7459 11.8125 11.4613 11.5162 11.9887 10.9887C12.5162 10.4613 12.8125 9.74592 12.8125 9C12.8125 8.25408 12.5162 7.53871 11.9887 7.01126C11.4613 6.48382 10.7459 6.1875 10 6.1875Z" stroke="white" stroke-width="1.875" stroke-linecap="round" stroke-linejoin="round"></path></svg><svg viewBox="0 0 20 18" fill="none" id="favorite"><path d="M9.99375 3.04127C8.18125 1.01252 5.16 0.466274 2.89 2.32502C0.620004 4.18252 0.300004 7.28877 2.08375 9.48752L9.99375 16.8125L17.905 9.48752C19.6875 7.28877 19.4063 4.16252 17.0975 2.32502C14.7875 0.486274 11.8063 1.01252 9.99375 3.04127Z" stroke="white" stroke-width="1.875" stroke-linecap="round" stroke-linejoin="round"></path></svg><svg viewBox="0 0 18 18" fill="none" id="grade"><path d="M4.875 7.5L7.125 9.75L10.125 4.5" stroke="white" stroke-width="0.75" stroke-linecap="round"></path><path fill-rule="evenodd" clip-rule="evenodd" d="M7.5 0.78125C6.91375 0.78125 6.35437 0.973125 5.45187 1.28188L4.9975 1.43813C4.07187 1.75438 3.35687 1.99937 2.84562 2.20687C2.58812 2.31125 2.36625 2.41313 2.18812 2.51625C2.01625 2.61625 1.84437 2.74063 1.7275 2.9075C1.61187 3.07188 1.55188 3.27437 1.51438 3.47C1.475 3.6725 1.45188 3.91562 1.43625 4.195C1.40625 4.74875 1.40625 5.50875 1.40625 6.49375V7.49438C1.40625 11.3075 4.28625 13.1356 5.99875 13.8844L6.01562 13.8912C6.22813 13.9844 6.42813 14.0712 6.6575 14.13C6.89938 14.1925 7.15688 14.2188 7.5 14.2188C7.84375 14.2188 8.1 14.1925 8.3425 14.13C8.57187 14.0712 8.77187 13.9844 8.98375 13.8912L9.00125 13.8844C10.7137 13.1356 13.5938 11.3075 13.5938 7.49438V6.49375C13.5938 5.50875 13.5938 4.74875 13.5637 4.19438C13.5537 3.95125 13.5276 3.70906 13.4856 3.46938C13.4481 3.27437 13.3881 3.07188 13.2731 2.90688C13.1556 2.74063 12.9838 2.61625 12.8119 2.51625C12.6 2.39833 12.3803 2.29497 12.1544 2.20687C11.6431 1.99937 10.9281 1.75438 10.0025 1.43813L9.54813 1.28188C8.64563 0.973125 8.08563 0.78125 7.5 0.78125ZM5.675 2.19625C6.68437 1.85125 7.08875 1.71875 7.5 1.71875C7.91125 1.71875 8.31563 1.85125 9.325 2.19625L9.6825 2.31875C10.6281 2.6425 11.3175 2.87875 11.8013 3.075C12.0431 3.17375 12.2181 3.25625 12.3413 3.3275C12.4019 3.3625 12.4438 3.39125 12.4713 3.41437C12.495 3.43312 12.5044 3.44438 12.5056 3.44563C12.5138 3.46034 12.5205 3.47584 12.5256 3.49187C12.5381 3.52688 12.5519 3.57687 12.565 3.64687C12.5988 3.84489 12.6197 4.0449 12.6275 4.24563C12.6562 4.77125 12.6562 5.505 12.6562 6.51062V7.49438C12.6562 10.7288 10.2375 12.3212 8.62562 13.025C8.39375 13.1263 8.25938 13.1838 8.11 13.2219C7.9675 13.2587 7.79375 13.2812 7.5 13.2812C7.20625 13.2812 7.0325 13.2587 6.89 13.2219C6.74 13.1844 6.60625 13.1263 6.37438 13.025C4.76188 12.3206 2.34375 10.7288 2.34375 7.49438V6.51062C2.34375 5.505 2.34375 4.77125 2.3725 4.24563C2.38031 4.0449 2.40119 3.84489 2.435 3.64687C2.44812 3.57687 2.46188 3.52688 2.47438 3.49187C2.48563 3.46062 2.49312 3.44813 2.49437 3.44563C2.5048 3.43413 2.51631 3.42366 2.52875 3.41437C2.56968 3.38179 2.61315 3.35253 2.65875 3.32687C2.78188 3.25563 2.95687 3.17375 3.19875 3.07562C3.6825 2.87875 4.37188 2.6425 5.3175 2.31938L5.67563 2.19625H5.675Z" fill="white"></path></svg><svg viewBox="0 0 17 14" fill="none" id="heart"><path d="M8.49434 1.73988C6.89435 -0.0510132 4.22735 -0.533218 2.2235 1.1076C0.219662 2.74732 -0.0628178 5.48938 1.51179 7.43033L8.49434 13.8965L15.478 7.43033C17.0515 5.48938 16.8032 2.72966 14.7652 1.1076C12.726 -0.515563 10.0943 -0.0510132 8.49434 1.73988Z" fill="#5DDA04"></path></svg><svg viewBox="0 0 20 20" fill="none" id="hide-arrow"><path d="M12.7083 5.6252L5.625 5.6252L5.625 12.7085" stroke="#333333" stroke-width="1.5" stroke-linecap="round" stroke-linejoin="round"></path><path d="M5.834 5.8333L14.3757 14.375" stroke="#333333" stroke-width="1.5" stroke-linecap="round" stroke-linejoin="round"></path></svg><svg viewBox="0 0 31 30" fill="none" id="mail"><rect x="0.5" width="30" height="30" rx="15" fill="white"></rect><path d="M6.43747 9.6875C6.43747 9.02446 6.70086 8.38857 7.1697 7.91973C7.63854 7.45089 8.27443 7.1875 8.93747 7.1875H22.0625C22.7255 7.1875 23.3614 7.45089 23.8302 7.91973C24.2991 8.38857 24.5625 9.02446 24.5625 9.6875V20.3125C24.5625 20.9755 24.2991 21.6114 23.8302 22.0803C23.3614 22.5491 22.7255 22.8125 22.0625 22.8125H8.93747C8.27443 22.8125 7.63854 22.5491 7.1697 22.0803C6.70086 21.6114 6.43747 20.9755 6.43747 20.3125V9.6875Z" fill="#333333" stroke="#333333" stroke-width="1.25" stroke-linecap="round" stroke-linejoin="round"></path><path d="M7.37497 8.125L15.5 15.3125L23.625 8.125" stroke="white" stroke-width="1.25" stroke-linecap="round" stroke-linejoin="round"></path></svg><svg viewBox="0 0 30 30" fill="none" id="phone"><g clip-path="url(#phone_0)"><path fill-rule="evenodd" clip-rule="evenodd" d="M12.4495 11.5816C9.64589 13.2002 13.9235 21.2196 16.9914 19.4484C17.5362 20.392 19.291 23.4315 19.8358 24.375C18.5414 25.1224 17.4458 25.5935 15.9452 24.7356C11.7786 22.3538 7.19203 14.4131 7.32277 9.67643C7.36809 8.03133 8.33732 7.38677 9.60512 6.65482C10.1499 7.59843 11.9047 10.638 12.4495 11.5816Z" fill="
#ffffff"></path><path fill-rule="evenodd" clip-rule="evenodd" d="M13.6251 11.4478C13.3222 11.6227 12.9324 11.5183 12.7575 11.2153L10.0759 6.57075C9.90102 6.26776 10.0054 5.87796 10.3084 5.70305L11.7177 4.88936C12.0207 4.71443 12.4106 4.81891 12.5855 5.12186L15.267 9.7664C15.4419 10.0693 15.3375 10.4591 15.0345 10.634L13.6251 11.4478Z" fill="
#ffffff"></path><path fill-rule="evenodd" clip-rule="evenodd" d="M20.9509 24.1361C20.648 24.311 20.2582 24.2066 20.0833 23.9036L17.4017 19.259C17.2268 18.9561 17.3312 18.5662 17.6341 18.3914L19.0435 17.5777C19.3464 17.4028 19.7363 17.5073 19.9112 17.8102L22.5928 22.4547C22.7677 22.7577 22.6632 23.1475 22.3603 23.3224L20.9509 24.1361Z" fill="
#ffffff"></path><path d="M14.9999 0L15.0001 0.00349353C19.1437 0.00355705 22.8936 1.68154 25.6058 4.39401C28.3181 7.10632 29.996 10.856 29.9961 14.9997H29.9996V15.0004H29.9961C29.9961 19.144 28.3181 22.8939 25.6056 25.6061C22.8932 28.3184 19.1436 29.9963 14.9999 29.9964V29.9999H14.9992V29.9964C10.8556 29.9964 7.10571 28.3184 4.39355 25.6059C1.68124 22.8935 0.0032913 19.1439 0.00318836 15.0002H-0.000305176V14.9995H0.00318836C0.00325187 10.8559 1.68124 7.10601 4.3937 4.39385C7.10602 1.68154 10.8557 0.00359648 14.9994 0.00349353L14.9999 0ZM15.0001 1.78913V1.79262H14.9994V1.78913C11.3554 1.78922 8.0535 3.26916 5.66151 5.6613C3.26915 8.0536 1.78918 11.3559 1.78918 14.9997H1.79267V15.0004H1.78918C1.78927 18.6443 3.26921 21.9463 5.66135 24.3383C8.05365 26.7306 11.3559 28.2106 14.9997 28.2106V28.2071H15.0004V28.2106C18.6444 28.2105 21.9463 26.7306 24.3383 24.3384C26.7307 21.9461 28.2106 18.6439 28.2106 15H28.2071V14.9993H28.2106C28.2105 11.3554 26.7306 8.05345 24.3385 5.66146C21.9462 3.26911 18.6439 1.78913 15.0001 1.78913Z" fill="
#ffffff"></path></g><defs><clipPath id="phone_0"><rect width="30" height="30" fill="
#ffffff"></rect></clipPath></defs></svg><svg viewBox="0 0 30 30" fill="none" id="search"><path d="M26.0833 26.0833L19.8333 19.8333M1.91663 12.3333C1.91663 9.57062 3.01409 6.9211 4.9676 4.9676C6.9211 3.01409 9.57062 1.91663 12.3333 1.91663C15.096 1.91663 17.7455 3.01409 19.699 4.9676C21.6525 6.9211 22.75 9.57062 22.75 12.3333C22.75 15.096 21.6525 17.7455 19.699 19.699C17.7455 21.6525 15.096 22.75 12.3333 22.75C9.57062 22.75 6.9211 21.6525 4.9676 19.699C3.01409 17.7455 1.91663 15.096 1.91663 12.3333Z" stroke="#333333" stroke-width="2.5" stroke-linecap="round" stroke-linejoin="round"></path></svg><svg viewBox="0 0 30 30" fill="none" id="shop"><g filter="url(#shop_0)"><path d="M9.6875 9.6875H24.0625L22.0163 18.385C21.8872 18.9336 21.5766 19.4224 21.1348 19.7723C20.6931 20.1222 20.146 20.3125 19.5825 20.3125H14.4237C13.8722 20.3124 13.3362 20.1299 12.8992 19.7935C12.4622 19.4571 12.1487 18.9856 12.0075 18.4525L9.6875 9.6875ZM9.6875 9.6875L8.75 5.9375H5.9375" stroke="white" stroke-width="1.875" stroke-linecap="round" stroke-linejoin="round"></path><path d="M12.5 22.5C12.1685 22.5 11.8505 22.6317 11.6161 22.8661C11.3817 23.1005 11.25 23.4185 11.25 23.75C11.25 24.0815 11.3817 24.3995 11.6161 24.6339C11.8505 24.8683 12.1685 25 12.5 25C12.8315 25 13.1495 24.8683 13.3839 24.6339C13.6183 24.3995 13.75 24.0815 13.75 23.75C13.75 23.4185 13.6183 23.1005 13.3839 22.8661C13.1495 22.6317 12.8315 22.5 12.5 22.5Z" fill="white"></path><path d="M21.25 22.5C20.9185 22.5 20.6005 22.6317 20.3661 22.8661C20.1317 23.1005 20 23.4185 20 23.75C20 24.0815 20.1317 24.3995 20.3661 24.6339C20.6005 24.8683 20.9185 25 21.25 25C21.5815 25 21.8995 24.8683 22.1339 24.6339C22.3683 24.3995 22.5 24.0815 22.5 23.75C22.5 23.4185 22.3683 23.1005 22.1339 22.8661C21.8995 22.6317 21.5815 22.5 21.25 22.5Z" fill="white"></path></g><defs><filter id="shop_0" x="-6" y="-6" width="42" height="42" filterUnits="userSpaceOnUse" color-interpolation-filters="sRGB"><feFlood flood-opacity="0" result="BackgroundImageFix"></feFlood><feGaussianBlur in="BackgroundImageFix" stdDeviation="3"></feGaussianBlur><feComposite in2="SourceAlpha" operator="in" result="effect1_backgroundBlur_320_1547"></feComposite><feBlend mode="normal" in="SourceGraphic" in2="effect1_backgroundBlur_320_1547" result="shape"></feBlend></filter></defs></svg><svg viewBox="0 0 20 20" fill="none" id="show-arrow"><path d="M7.29167 14.3748H14.375V7.2915" stroke="#333333" stroke-width="1.5" stroke-linecap="round" stroke-linejoin="round"></path><path d="M14.166 14.1667L5.62435 5.625" stroke="#333333" stroke-width="1.5" stroke-linecap="round" stroke-linejoin="round"></path></svg><svg viewBox="0 0 31 30" fill="none" id="tg"><rect x="0.5" width="30" height="30" rx="15" fill="#27A6E5"></rect><path d="M21.5 9.45167L19.2459 21.2192C19.2459 21.2192 18.9306 22.0351 18.0642 21.6438L12.8634 17.5144L12.8393 17.5023C13.5418 16.849 18.9893 11.777 19.2274 11.5471C19.5959 11.191 19.3671 10.979 18.9392 11.248L10.8926 16.5397L7.78823 15.4581C7.78823 15.4581 7.29969 15.2781 7.25269 14.8868C7.20508 14.4949 7.80431 14.2829 7.80431 14.2829L20.4599 9.14171C20.4599 9.14171 21.5 8.66845 21.5 9.45167Z" fill="white"></path></svg><svg viewBox="0 0 31 30" fill="none" id="wsp"><rect x="0.5" width="30" height="30" rx="15" fill="#5DDA04"></rect><path d="M21.4451 9.04687C19.9634 7.57031 17.9878 6.75 15.9024 6.75C11.5671 6.75 8.05488 10.25 8.05488 14.5703C8.05488 15.9375 8.43902 17.3047 9.09756 18.4531L8 22.5L12.1707 21.4062C13.3232 22.0078 14.5854 22.3359 15.9024 22.3359C20.2378 22.3359 23.75 18.8359 23.75 14.5156C23.6951 12.4922 22.9268 10.5234 21.4451 9.04687ZM19.689 17.3594C19.5244 17.7969 18.7561 18.2344 18.372 18.2891C18.0427 18.3437 17.6037 18.3438 17.1646 18.2344C16.8902 18.125 16.5061 18.0156 16.0671 17.7969C14.0915 16.9766 12.8293 15.0078 12.7195 14.8438C12.6098 14.7344 11.8963 13.8047 11.8963 12.8203C11.8963 11.8359 12.3902 11.3984 12.5549 11.1797C12.7195 10.9609 12.939 10.9609 13.1037 10.9609C13.2134 10.9609 13.378 10.9609 13.4878 10.9609C13.5976 10.9609 13.7622 10.9062 13.9268 11.2891C14.0915 11.6719 14.4756 12.6562 14.5305 12.7109C14.5854 12.8203 14.5854 12.9297 14.5305 13.0391C14.4756 13.1484 14.4207 13.2578 14.311 13.3672C14.2012 13.4766 14.0915 13.6406 14.0366 13.6953C13.9268 13.8047 13.8171 13.9141 13.9268 14.0781C14.0366 14.2969 14.4207 14.8984 15.0244 15.4453C15.7927 16.1016 16.3963 16.3203 16.6159 16.4297C16.8354 16.5391 16.9451 16.4844 17.0549 16.375C17.1646 16.2656 17.5488 15.8281 17.6585 15.6094C17.7683 15.3906 17.9329 15.4453 18.0976 15.5C18.2622 15.5547 19.25 16.0469 19.4146 16.1562C19.6341 16.2656 19.7439 16.3203 19.7988 16.375C19.8537 16.5391 19.8537 16.9219 19.689 17.3594Z" fill="white"></path></svg></svg>